<?xml version="1.0" encoding="UTF-8" standalone="no"?> <svg width="24" height="24" viewBox="0 0 24 24" fill="none" xmlns="http://www.w3.org/2000/svg">
<path d="M16 6.99963V1.5C16 1.36739 15.9473 1.24021 15.8536 1.14645C15.7598 1.05268 15.6326 1 15.5 1H1L11 4V21H15.5C15.6326 21 15.7598 20.9473 15.8536 20.8536C15.9473 20.7598 16 20.6326 16 20.5V6.99963Z" fill="#FFE2E4"/>
<path d="M10.4019 22.8804L1 21V1L10.6437 3.8931C10.7467 3.924 10.837 3.98727 10.9011 4.07354C10.9653 4.15981 11 4.26447 11 4.372V22.3901C11 22.4641 10.9836 22.5371 10.9519 22.604C10.9203 22.6709 10.8742 22.7299 10.817 22.7768C10.7598 22.8237 10.6929 22.8573 10.6211 22.8752C10.5493 22.8931 10.4745 22.8949 10.4019 22.8804ZM23.96 10.75C23.9561 10.7011 23.9425 10.6536 23.92 10.61C23.8715 10.4907 23.8002 10.382 23.71 10.29L20.71 7.29C20.5214 7.10297 20.2664 6.99826 20.0008 6.9988C19.7353 6.99934 19.4807 7.10509 19.2929 7.29289C19.1051 7.4807 18.9993 7.73526 18.9988 8.00085C18.9983 8.26644 19.103 8.52143 19.29 8.71L20.58 10H15C14.7348 10 14.4804 10.1054 14.2929 10.2929C14.1054 10.4804 14 10.7348 14 11C14 11.2652 14.1054 11.5196 14.2929 11.7071C14.4804 11.8946 14.7348 12 15 12H20.58L19.29 13.29C19.1026 13.4788 18.9975 13.734 18.9975 14C18.9975 14.266 19.1026 14.5212 19.29 14.71C19.4796 14.8959 19.7345 15 20 15C20.2655 15 20.5204 14.8959 20.71 14.71L23.71 11.71C23.8002 11.6181 23.8715 11.5093 23.92 11.39C23.9425 11.3464 23.956 11.2989 23.96 11.25C24.01 11.0871 24.01 10.9129 23.96 10.75V10.75Z" fill="#FD2437"/>
</svg>
